Simulation
nRows=15
nColumns=15
endheader
time  TH_x TH_y TH_z SC_y  SC_z  SC_x  AC_y  AC_z  AC_x  GH_y  GH_z  GH_yy  EL_x  PS_y
1.9499999999999993  0.000000  0.000000  0.000000  -29.155387984446268  14.664794740971494  22.938546948715725  59.792758975838105  12.371811896781537  5.550553544957054  47.85837357921486  57.10722324240527  -45.46168578708251  22.354748181110562  0.000000
1.9889999999999992  0.000000  0.000000  0.000000  -28.65877213142659  14.269200781251769  22.527477629655376  59.610022108710396  11.989938017604125  4.623844110228016  48.16842431508947  56.258502964805274  -44.920666506646135  22.566474040908098  0.000000
2.027999999999999  0.000000  0.000000  0.000000  -28.114535460818246  13.817257722349282  22.085030577398918  59.42309026054489  11.567771223278273  3.6219997840196787  48.52274412866359  55.30701356031845  -44.43568547163566  22.77079656024422  0.000000
2.0669999999999993  0.000000  0.000000  0.000000  -27.532966200608275  13.314084287463583  21.608740920654544  59.23536485229706  11.11306509474963  2.566957467529769  48.92080955446406  54.267133334535565  -44.011583336319624  22.953888726031686  0.000000
2.1059999999999994  0.000000  0.000000  0.000000  -26.9287980126781  12.766818572141524  21.093931987866874  59.048035632890894  10.635048928449217  1.481358759915469  49.346122494763  53.15608514643796  -43.608455371407125  23.105050350957857  0.000000
2.144999999999999  0.000000  0.000000  0.000000  -26.320013140817643  12.18277328818925  20.532070897791137  58.86341289538124  10.144580115861956  0.38891805324924045  49.7689754137856  51.99347449680127  -43.161718631209325  23.21771151673122  0.000000
2.1839999999999993  0.000000  0.000000  0.000000  -25.72736070851498  11.567563697182091  19.909408808914186  58.687540987530106  9.652970035744776  -0.685197161762378  50.15374166286208  50.800227075370366  -42.61273963555686  23.291329720258215  0.000000
2.2229999999999994  0.000000  0.000000  0.000000  -25.17484600398048  10.924223248509138  19.207131269180096  58.53026466857362  9.170874088748299  -1.7147566368671334  50.46690603715283  49.59684220419808  -41.929710954042626  23.33318541045304  0.000000
2.261999999999999  0.000000  0.000000  0.000000  -24.688578401444573  10.254336919510779  18.403270628624277  58.40123518676095  8.708590303686252  -2.672992627473333  50.68195975660316  48.39959044710107  -41.10587300257407  23.35825145834327  0.000000
2.3009999999999993  0.000000  0.000000  0.000000  -24.29253556659232  9.560448299108762  17.476259579738088  58.30446052092957  8.277352744358774  -3.5336921119150326  50.77966423067741  47.21612175962335  -40.13975285059942  23.386516732180425  0.000000
2.339999999999999  0.000000  0.000000  0.000000  -24.00270164609481  8.848672349424055  16.408945083384978  58.23448395380597  7.890009134844589  -4.2723720632300655  50.743778270786486  46.04206665299493  -39.012429702175766  23.43950950478582  0.000000
2.378999999999999  0.000000  0.000000  0.000000  -23.823140959797474  8.129630289660119  15.191701527269549  58.1771339306661  7.5602063702611755  -4.868757767854314  50.555918158194515  44.86218496524409  -37.67975865514252  23.537546466096774  0.000000
2.4179999999999993  0.000000  0.000000  0.000000  -23.746985392081697  7.416753879617909  13.82428300288829  58.11394507112877  7.300305584705321  -5.30939809567804  50.19320525832093  43.65544147130362  -36.083639647450894  23.698336082906387  0.000000
2.456999999999999  0.000000  0.000000  0.000000  -23.760989637871695  6.7232793470300205  12.315789248649635  58.02803808981079  7.118836367239924  -5.589820882103185  49.62882823529662  42.402971473056695  -34.17222033335247  23.936129135485892  0.000000
2.495999999999999  0.000000  0.000000  0.000000  -23.851147081347094  6.059384829319434  10.683772411330928  57.90792424690173  7.0193049896849  -5.714302583481156  48.83583666730097  41.0936025486106  -31.917121917846742  24.26037012960846  0.000000
